<?xml version="1.0" encoding="iso-8859-1"?>
<!-- Uploaded to: SVG Repo, www.svgrepo.com, Generator: SVG Repo Mixer Tools -->
<svg height="800px" width="800px" version="1.1" id="Capa_1" xmlns="http://www.w3.org/2000/svg" xmlns:xlink="http://www.w3.org/1999/xlink" 
	 viewBox="0 0 480 480" xml:space="preserve">
<g>
	<path style="fill:#826E77;" d="M240,320h-5.714h-1.253c-2.622,0-4.908,1.785-5.544,4.328l-4.632,18.529v114.286h0H240V320z"/>
	<polygon style="fill:#E9A868;" points="331.429,148.571 348.571,148.571 354.286,102.857 331.429,102.857 	"/>
	<path style="fill:#695A69;" d="M331.429,160h13.143c2.209,0,4-1.791,4-4v-7.429h-17.143V160z"/>
	<path style="fill:#695A69;" d="M314.286,148.571V156c0,2.209,1.791,4,4,4h7.428C319.402,160,314.286,154.883,314.286,148.571z"/>
	<path style="fill:#695A69;" d="M337.143,80.36V47.714c0-1.105-0.896-2-2-2h-7.429c-1.104,0-2,0.895-2,2v9.428h-80V28.571
		C245.714,25.416,243.156,0,240,0s-5.714,25.416-5.714,28.571v28.571h-80v-9.428c0-1.105-0.896-2-2-2h-7.429c-1.104,0-2,0.895-2,2
		V80.36c1.826-0.235,3.741-0.36,5.714-0.36v22.857h22.857V91.429c0-5.326-7.284-9.8-17.143-11.068V68.571h80v34.286h-5.714v-5.714
		c0-12.603-10.254-22.857-22.857-22.857s-22.857,10.254-22.857,22.857S193.111,120,205.714,120v-11.429
		c-6.302,0-11.428-5.126-11.428-11.429s5.127-11.428,11.428-11.428c6.302,0,11.429,5.125,11.429,11.428v108.572h11.428V160h5.714
		v160H240v137.143h-17.143l-17.143,11.429V480h68.572v-11.429l-17.143-11.429l0,0V342.857l-4.632-18.529
		c-0.636-2.544-2.922-4.328-5.544-4.328h0h-1.253V160h5.714v45.714h11.428V97.143c0-6.303,5.127-11.428,11.429-11.428
		c6.302,0,11.428,5.125,11.428,11.428s-5.127,11.429-11.428,11.429V120c12.603,0,22.857-10.254,22.857-22.857
		s-10.254-22.857-22.857-22.857s-22.857,10.254-22.857,22.857v5.714h-5.714V68.571h80V80.36c1.826-0.235,3.741-0.36,5.714-0.36
		v22.857h22.857V91.429C354.286,86.103,347.001,81.629,337.143,80.36z M228.571,148.571v-34.286h5.714v34.286H228.571z
		 M251.429,114.286v34.286h-5.714v-34.286H251.429z"/>
	<path style="fill:#826E77;" d="M331.429,80c-1.973,0-3.888,0.125-5.714,0.36c-9.858,1.269-17.143,5.743-17.143,11.068v11.429
		h22.857V80z"/>
	<path style="fill:#826E77;" d="M314.286,148.571c0,6.311,5.117,11.429,11.428,11.429h5.714v-11.429H314.286z"/>
	<polygon style="fill:#F2D057;" points="331.429,102.857 308.571,102.857 314.286,148.571 331.429,148.571 	"/>
	<polygon style="fill:#E9A868;" points="148.571,148.571 165.714,148.571 171.429,102.857 148.571,102.857 	"/>
	<path style="fill:#695A69;" d="M148.571,160h13.143c2.209,0,4-1.791,4-4v-7.429h-17.143V160z"/>
	<path style="fill:#695A69;" d="M131.429,148.571V156c0,2.209,1.791,4,4,4h7.428C136.545,160,131.429,154.883,131.429,148.571z"/>
	<path style="fill:#826E77;" d="M148.571,80c-1.973,0-3.888,0.125-5.714,0.36c-9.858,1.269-17.143,5.743-17.143,11.068v11.429
		h22.857V80z"/>
	<path style="fill:#826E77;" d="M131.429,148.571c0,6.311,5.117,11.429,11.428,11.429h5.714v-11.429H131.429z"/>
	<polygon style="fill:#F2D057;" points="148.571,102.857 125.714,102.857 131.429,148.571 148.571,148.571 	"/>
</g>
</svg>